<svg width="24" height="16" viewBox="0 0 24 16" fill="none" xmlns="http://www.w3.org/2000/svg">
<path d="M22.1937 0H21.8066V1.2857C21.8066 1.91428 22.2712 2.42856 22.8389 2.42856H24.0002V1.99997C24.0002 0.885716 23.2002 0 22.1937 0Z" fill="#6FCF97"/>
<path d="M20.258 1.2857V0H3.76776V1.2857C3.76776 2.85714 2.60648 4.14284 1.18711 4.14284H0.0516178V2.42856H1.18711C1.75486 2.42856 2.21937 1.91428 2.21937 1.2857V0H1.80648C0.800002 0 0 0.885716 0 1.99997V14C0 15.1143 0.800002 15.9999 1.80643 15.9999H2.24515V14.7142C2.24515 14.0857 1.78064 13.5714 1.2129 13.5714H0.0516178V11.8571H1.2129C2.63226 11.8571 3.79354 13.1428 3.79354 14.7142V15.9999H20.258V14.7142C20.258 13.1428 21.4193 11.8571 22.8386 11.8571H23.9999V4.14284H22.8386C21.4193 4.14284 20.258 2.85714 20.258 1.2857Z" fill="#6FCF97"/>
<path d="M21.8066 14.7143V16H22.1937C23.2002 16 24.0002 15.1143 24.0002 14.0001V13.5715H22.8389C22.2712 13.5715 21.8066 14.0858 21.8066 14.7143Z" fill="#6FCF97"/>
<path d="M1.18701 2.42856H0.0515137V4.14284H1.18701C2.60637 4.14284 3.76765 2.85714 3.76765 1.2857V0H2.21927V1.2857C2.21927 1.91428 1.75475 2.42856 1.18701 2.42856Z" fill="#8CD9AC"/>
<path d="M21.8062 1.2857V0H20.2578V1.2857C20.2578 2.85714 21.4191 4.14284 22.8385 4.14284H23.9997V2.42856H22.8385C22.2707 2.42856 21.8062 1.91428 21.8062 1.2857Z" fill="#8CD9AC"/>
<path d="M1.21279 11.8571H0.0515137V13.5713H1.21279C1.78054 13.5713 2.24505 14.0856 2.24505 14.7142V15.9999H3.79344V14.7142C3.79344 13.1428 2.63216 11.8571 1.21279 11.8571Z" fill="#8CD9AC"/>
<path d="M20.2578 14.7142V15.9999H21.8062V14.7142C21.8062 14.0856 22.2707 13.5713 22.8385 13.5713H23.9997V11.8571H22.8385C21.4191 11.8571 20.2578 13.1428 20.2578 14.7142Z" fill="#8CD9AC"/>
<path d="M11.9994 3.20001C10.7138 3.20001 9.51396 3.7143 8.59979 4.60002C7.68563 5.51429 7.19995 6.7143 7.19995 8.00001C7.19995 9.28572 7.71417 10.4857 8.59979 11.4C9.51396 12.3143 10.7138 12.8 11.9994 12.8C13.2849 12.8 14.4848 12.2857 15.399 11.4C16.3131 10.4857 16.7988 9.28572 16.7988 8.00001C16.8274 6.7143 16.3131 5.51429 15.399 4.60002C14.4848 3.68575 13.2849 3.20001 11.9994 3.20001Z" fill="#69B168"/>
<path d="M11.9997 4.79999C11.1426 4.79999 10.3427 5.14284 9.73328 5.73333C9.12384 6.34284 8.80005 7.14285 8.80005 7.99999C8.80005 8.85713 9.14286 9.65714 9.73328 10.2666C10.3427 10.8762 11.1426 11.2 11.9997 11.2C12.8567 11.2 13.6566 10.8571 14.2661 10.2666C14.8755 9.65714 15.1993 8.85713 15.1993 7.99999C15.2183 7.14285 14.8755 6.34284 14.2661 5.73333C13.6566 5.12381 12.8567 4.79999 11.9997 4.79999Z" fill="#8CD9AC"/>
</svg>
