<svg width="24" height="24" viewBox="0 0 24 24" fill="none" xmlns="http://www.w3.org/2000/svg">
<g clip-path="url(#clip0)">
<path d="M23.8314 14.6702C23.7207 14.9528 23.5462 15.2061 23.3214 15.4102L23.2914 15.4402C22.9042 15.8032 22.3923 16.0037 21.8614 16.0002H19.0015C18.8315 15.9999 18.6733 15.9133 18.5815 15.7702L18.1015 15.0002L16.0816 11.7702C16.0032 11.6562 15.9811 11.5126 16.0216 11.3802C16.0523 11.2443 16.1396 11.1278 16.2616 11.0602L20.7615 8.56028C21.005 8.43227 21.3061 8.52081 21.4415 8.7603L23.7614 12.9002C24.0512 13.4493 24.0769 14.1 23.8314 14.6702Z" fill="#98A775" fill-opacity="0.5"/>
<path d="M13.0613 4.09038L12.6413 4.68039L10.4114 7.79035C10.3177 7.9237 10.1643 8.00226 10.0014 8.00034C9.91779 7.99945 9.83557 7.97887 9.76137 7.94034L4.26147 4.9404C4.13355 4.87262 4.0421 4.75187 4.01149 4.6104C3.9799 4.46715 4.01281 4.31725 4.10149 4.20039L6.24144 1.35044C6.3268 1.23391 6.42041 1.12367 6.52142 1.02045C7.12385 0.384976 7.95592 0.0175764 8.83139 0.000467315C8.87826 -0.00117328 8.92523 0.00215479 8.9714 0.0104515C10.0411 0.042701 11.0319 0.580817 11.6414 1.46041L13.0613 3.52039C13.1802 3.69181 13.1802 3.91901 13.0613 4.09038Z" fill="#98A775" fill-opacity="0.5"/>
<path d="M9.84092 13.8702C9.68871 14.01 9.4662 14.0419 9.28091 13.9502L7.72094 13.1702L6.81097 15.0002L6.45097 15.7202C6.36473 15.8899 6.19139 15.9978 6.00098 16.0002H2.14108C1.60489 16.0066 1.08763 15.8019 0.701107 15.4302L0.681092 15.4102C0.450799 15.1988 0.269818 14.9394 0.151086 14.6502C-0.00238016 14.2589 -0.0371608 13.8311 0.0511033 13.4202C0.0900088 13.2435 0.15043 13.0722 0.2311 12.9102L1.89106 9.60028L0.151086 7.85028C0.00282286 7.71228 -0.0413795 7.4953 0.0410722 7.31028C0.117758 7.12358 0.299208 7.00129 0.501049 7.00031H7.00095C7.20279 7.00129 7.38424 7.12358 7.46093 7.31028L9.96087 13.3102C10.0385 13.5039 9.9911 13.7253 9.84092 13.8702Z" fill="#98A775" fill-opacity="0.5"/>
<path d="M10.0025 15.5001V21.5C10.0025 21.7761 9.77862 22 9.50248 22H7.07252C5.9249 22.0027 4.85036 21.4373 4.20256 20.4901C4.06255 20.29 3.94255 20.1101 3.83258 19.9501L3.7926 19.9101C3.80258 19.9101 3.60262 19.6301 3.41259 19.3501C3.32259 19.2301 3.25261 19.1101 3.18258 19.0201C2.92257 18.6401 2.7826 18.4501 2.8426 18.5301C2.79258 18.4501 2.74262 18.3901 2.7226 18.3501L2.71262 18.3401C2.67263 18.2801 2.6596 18.2601 2.65763 18.2551L2.64263 18.2401L2.63265 18.2201C1.93268 17.2101 1.28267 16.2702 0.702698 15.4302L0.682683 15.4102C0.492702 15.1502 0.322689 14.8902 0.152677 14.6502C-0.000789403 14.2589 -0.03557 13.8311 0.052694 13.4202L1.40267 14.7102C1.60034 14.9023 1.86705 15.0069 2.14267 15.0002H9.50253C9.77862 15.0002 10.0025 15.224 10.0025 15.5001Z" fill="#98A775"/>
<path d="M20.9627 2.69038L18.4627 8.69027C18.3861 8.87697 18.2046 8.99927 18.0028 9.00025C17.9724 9.00189 17.942 8.99852 17.9128 8.99027L12.4129 7.9903C12.2031 7.94741 12.0407 7.78101 12.0029 7.57031C11.9729 7.3545 12.0862 7.14413 12.2828 7.05033L13.7628 6.31033L12.6428 4.68037L10.8229 2.02041C10.3829 1.39538 9.66718 1.02259 8.90289 1.02044H6.52295C7.01742 0.496994 7.67155 0.152329 8.38292 0.0404399L8.83291 0.0104404H8.97292L15.4328 0.000456219C16.2716 -0.00357496 17.0564 0.413277 17.5228 1.11044L18.6727 2.85041L20.2827 2.0504C20.468 1.95877 20.6905 1.99055 20.8427 2.13042C20.9931 2.27517 21.0406 2.49674 20.9627 2.69038Z" fill="#98A775"/>
<path d="M23.8327 14.6702L23.3627 15.3502L23.3227 15.4102L23.2927 15.4402L19.8128 20.4901C19.1608 21.4379 18.0832 22.0029 16.9328 22.0001H16.0028V23.5C16.0012 23.7071 15.8749 23.8927 15.6828 23.97C15.6248 23.9897 15.564 23.9999 15.5028 24C15.3604 24.0011 15.2248 23.9388 15.1328 23.83L11.1329 19.3301C10.9743 19.1579 10.9617 18.8968 11.1029 18.7101L15.1028 13.2102C15.2255 13.0341 15.4477 12.9574 15.6528 13.0202C15.8622 13.0861 16.0041 13.2807 16.0028 13.5002V15.0002H21.8627C22.1383 15.0069 22.405 14.9024 22.6027 14.7102L23.9527 13.4202C24.0448 13.8391 24.0028 14.2765 23.8327 14.6702Z" fill="#98A775"/>
</g>
<defs>
<clipPath id="clip0">
<rect width="24" height="24" fill="white"/>
</clipPath>
</defs>
</svg>
