<svg width="24" height="24" viewBox="0 0 24 24" fill="none" xmlns="http://www.w3.org/2000/svg">
<path fill-rule="evenodd" clip-rule="evenodd" d="M0 12C0 5.37255 5.37255 0 12 0C18.6275 0 24 5.37255 24 12C24 18.6275 18.6275 24 12 24C5.37255 24 0 18.6275 0 12ZM4 8.76649C4 6.13824 6.13824 4 8.76649 4H15.2335C17.8617 4 20 6.13824 20 8.76649V15.2335C20 17.8618 17.8618 20 15.2335 20H8.76649C6.13824 20 4 17.8618 4 15.2335V8.76649ZM15.2335 18.3904C16.977 18.3904 18.3904 16.977 18.3904 15.2335V8.76649C18.3904 7.02297 16.977 5.6096 15.2335 5.6096H8.76649C7.023 5.6096 5.6096 7.02297 5.6096 8.76649V15.2335C5.6096 16.977 7.023 18.3904 8.76649 18.3904H15.2335ZM7.86182 12C7.86182 9.71819 9.7182 7.86182 12 7.86182C14.2818 7.86182 16.1382 9.71817 16.1382 12C16.1382 14.2817 14.2818 16.1381 12 16.1381C9.7182 16.1381 7.86182 14.2817 7.86182 12ZM9.47142 12C9.47142 13.3965 10.6035 14.5286 12 14.5286C13.3965 14.5286 14.5286 13.3965 14.5286 12C14.5286 10.6035 13.3965 9.47142 12 9.47142C10.6035 9.47142 9.47142 10.6035 9.47142 12ZM16.1464 8.88443C16.694 8.88443 17.138 8.44048 17.138 7.89284C17.138 7.3452 16.694 6.90125 16.1464 6.90125C15.5987 6.90125 15.1548 7.3452 15.1548 7.89284C15.1548 8.44048 15.5987 8.88443 16.1464 8.88443Z" fill="url(#gradient)"/>
<defs>
<linearGradient id="gradient" x1="18.2196" y1="23.93" x2="18.2196" y2="0.186316" gradientUnits="userSpaceOnUse">
<stop stop-color="#E09B3D"/>
<stop offset="0.3" stop-color="#C74C4D"/>
<stop offset="0.6" stop-color="#C21975"/>
<stop offset="1" stop-color="#7024C4"/>
</linearGradient>
</defs>
</svg>
