<svg width="24" height="16" viewBox="0 0 24 16" fill="none" xmlns="http://www.w3.org/2000/svg">
<path d="M1 0H23C23.55 0 24 0.423529 24 0.941177V15.0588C24 15.5765 23.55 16 23 16H1C0.45 16 0 15.5765 0 15.0588V0.941177C0 0.423529 0.45 0 1 0Z" fill="#4361C3"/>
<path d="M14.875 5C16.875 5 18.5 6.625 18.5 8.625C18.5 10.625 16.875 12.25 14.875 12.25C12.875 12.25 11.25 10.625 11.25 8.625C11.25 6.625 12.875 5 14.875 5Z" fill="#FFAF38"/>
<rect x="11.75" y="6.75" width="2.5" height="0.5" fill="#FFAF38"/>
<path d="M9.125 12.25C7.125 12.25 5.5 10.625 5.5 8.625C5.5 6.625 7.125 5 9.125 5C11.125 5 12.75 6.625 12.75 8.625C12.75 10.625 11.125 12.25 9.125 12.25Z" fill="#EB3636"/>
<path fill-rule="evenodd" clip-rule="evenodd" d="M15 6.75H11.75V7.25H15V6.75ZM11.75 9.75V10.25H15V9.75H11.75ZM14.75 8.25H11.5V7.75H14.75V8.25ZM11.5 9.25H14.75V8.75H11.5V9.25Z" fill="#FFAF38"/>
<path opacity="0.05" d="M1 16H1.45L24 1.36471V0.941176C24 0.423529 23.55 0 23 0H1C0.45 0 0 0.423529 0 0.941176V15.0588C0 15.5765 0.45 16 1 16Z" fill="white"/>
</svg>
