<svg width="24" height="16" viewBox="0 0 24 16" fill="none" xmlns="http://www.w3.org/2000/svg">
<rect y="4.23529" width="24" height="7.52941" fill="#F9F9F9"/>
<path d="M1 0H23C23.55 0 24 0.423529 24 0.941176V4.23529H0V0.941176C0 0.423529 0.45 0 1 0Z" fill="#09599E"/>
<path d="M0 11.7647H24V15.0588C24 15.5765 23.55 16 23 16H1C0.45 16 0 15.5765 0 15.0588V11.7647Z" fill="#E59703"/>
<path opacity="0.05" d="M1 15.9765C0.45 15.9765 0 15.5529 0 15.0353V0.941177C0 0.423529 0.45 0 1 0H23C23.55 0 24 0.423529 24 0.941177" fill="white"/>
<path d="M9.2749 9.97647L9.9999 6H11.1499L10.4249 9.97647H9.2749Z" fill="#00589F"/>
<path d="M14.5999 6.11765C14.3749 6.04706 14.0249 5.95294 13.5749 5.95294C12.4249 5.95294 11.6249 6.49412 11.6249 7.27059C11.6249 7.8353 12.1999 8.16471 12.6249 8.35294C13.0749 8.54118 13.2249 8.68235 13.2249 8.84706C13.2249 9.10588 12.8749 9.24706 12.5249 9.24706C12.0749 9.24706 11.8249 9.17647 11.4499 9.0353L11.2999 8.94118L11.1499 9.83529C11.4249 9.95294 11.9249 10.0471 12.4249 10.0471C13.6249 10.0471 14.4249 9.50588 14.4249 8.68235C14.4249 8.2353 14.1249 7.88235 13.4499 7.6C13.0499 7.41177 12.7999 7.29412 12.7999 7.10588C12.7999 6.94118 12.9999 6.75294 13.4499 6.75294C13.8249 6.75294 14.0999 6.82353 14.2999 6.89412L14.3999 6.94118L14.5999 6.11765Z" fill="#00589F"/>
<path fill-rule="evenodd" clip-rule="evenodd" d="M16.6501 6.02356H17.5501L18.5001 10H17.4251C17.4251 10 17.3001 9.55297 17.2751 9.4118H15.8001C15.7501 9.50591 15.5501 10 15.5501 10H14.3501L16.0501 6.35297C16.1751 6.09415 16.3751 6.02356 16.6501 6.02356ZM16.5751 7.45886C16.5751 7.45886 16.2251 8.32945 16.1251 8.56474V8.58827H17.0751C17.0251 8.37651 16.8001 7.43533 16.8001 7.43533L16.7251 7.08239C16.6751 7.22357 16.5751 7.45886 16.5751 7.45886Z" fill="#00589F"/>
<path d="M8.29995 6.02353L7.17495 8.72941L7.04995 8.18824C6.84995 7.55294 6.17495 6.87059 5.44995 6.51765L6.49995 9.97647H7.72495L9.54995 6H8.29995" fill="#00589F"/>
<path d="M6.125 6H4.275L4.25 6.09412C5.7 6.42353 6.65 7.22353 7.05 8.16471L6.65 6.35294C6.6 6.09412 6.375 6.02353 6.125 6Z" fill="#F9A51A"/>
</svg>
