<svg width="24" height="24" viewBox="0 0 24 24" fill="none" xmlns="http://www.w3.org/2000/svg">
<g clip-path="url(#clip0)">
<path fill-rule="evenodd" clip-rule="evenodd" d="M24 11.9835C24 18.6018 18.6274 23.967 12 23.967C5.37258 23.967 0 18.6018 0 11.9835C0 5.36519 5.37258 0 12 0C18.6274 0 24 5.36519 24 11.9835ZM12.6511 16.9391H11.7093C11.7093 16.9391 9.6311 17.0641 7.80109 15.1614C5.8053 13.0861 4.04267 8.96802 4.04267 8.96802C4.04267 8.96802 3.94106 8.698 4.05144 8.56748C4.17551 8.42073 4.51349 8.41133 4.51349 8.41133L6.7649 8.39659C6.7649 8.39659 6.97711 8.43205 7.12898 8.54335C7.25412 8.6352 7.32428 8.80695 7.32428 8.80695C7.32428 8.80695 7.68815 9.72593 8.17009 10.5573C9.11066 12.1804 9.54875 12.5354 9.86812 12.3615C10.3334 12.108 10.1939 10.0671 10.1939 10.0671C10.1939 10.0671 10.2025 9.32625 9.95967 8.99643C9.77164 8.74073 9.41698 8.66618 9.2604 8.64524C9.13376 8.62837 9.34168 8.33464 9.61121 8.20284C10.0164 8.0046 10.7319 7.99328 11.5773 8.00204C12.2359 8.00866 12.4254 8.04968 12.683 8.11184C13.2805 8.25592 13.2619 8.71759 13.2217 9.7137C13.2097 10.0113 13.1957 10.3567 13.1957 10.7556C13.1957 10.8453 13.1931 10.941 13.1904 11.0394C13.1765 11.5495 13.1605 12.1336 13.4967 12.3506C13.6691 12.4617 14.0909 12.3673 15.146 10.5783C15.6461 9.73042 16.0211 8.73347 16.0211 8.73347C16.0211 8.73347 16.103 8.55574 16.2303 8.47947C16.3605 8.40172 16.5362 8.42564 16.5362 8.42564L18.9054 8.4109C18.9054 8.4109 19.6173 8.3261 19.7326 8.64695C19.8535 8.98382 19.4665 9.77036 18.4986 11.0587C17.5794 12.2821 17.1327 12.7318 17.1747 13.1301C17.2052 13.4205 17.4956 13.6836 18.0519 14.1993C19.2182 15.2803 19.529 15.8479 19.6029 15.9828C19.6089 15.9938 19.6133 16.0018 19.6165 16.0071C20.1384 16.8714 19.0376 16.9391 19.0376 16.9391L16.9334 16.9684C16.9334 16.9684 16.4812 17.0579 15.8861 16.6497C15.5749 16.4364 15.2706 16.088 14.9807 15.7562C14.5376 15.2488 14.128 14.7799 13.7784 14.8906C13.1919 15.0764 13.2103 16.3384 13.2103 16.3384C13.2103 16.3384 13.2145 16.608 13.0809 16.7516C12.9356 16.908 12.6511 16.9391 12.6511 16.9391Z" fill="#5774A0"/>
</g>
<defs>
<clipPath id="clip0">
<rect width="24" height="23.967" fill="white"/>
</clipPath>
</defs>
</svg>
